<svg xmlns="http://www.w3.org/2000/svg" viewBox="0 0 24 24">
  <!-- Mounir Simple Icon with Code Symbol -->
  <defs>
    <!-- Simple gradient -->
    <linearGradient id="simpleGradient" x1="0%" y1="0%" x2="100%" y2="100%">
      <stop offset="0%" stop-color="#4361ee" />
      <stop offset="100%" stop-color="#7209b7" />
    </linearGradient>
  </defs>
  
  <!-- Left brace -->
  <path d="M6,4 
           C4,4 4,8 6,8 
           C4,8 4,12 6,12 
           C4,12 4,16 6,16 
           C4,16 4,20 6,20" 
        fill="none" 
        stroke="url(#simpleGradient)" 
        stroke-width="1" 
        stroke-linecap="round" 
        stroke-linejoin="round"/>
  
  <!-- Letter "M" stylized -->
  <path d="M9 20V4h1v7l3-7h1l3 7v-7h1v16h-1v-9l-3-7-3 7v9H9z" 
        fill="url(#simpleGradient)"/>
  
  <!-- Right brace -->
  <path d="M18,4 
           C20,4 20,8 18,8 
           C20,8 20,12 18,12 
           C20,12 20,16 18,16 
           C20,16 20,20 18,20" 
        fill="none" 
        stroke="url(#simpleGradient)" 
        stroke-width="1" 
        stroke-linecap="round" 
        stroke-linejoin="round"/>
</svg>